# xmcd
#
# Track frame offsets:
#  150
#  15637
#  38938
#  70620
#  89143
#  110035
#  129483
#  157714
#  179143
#
# Disc length: 2804 seconds
#
# Revision: 0
# Processed by: cddbd v1.5.1PL2 Copyright (c) Steve Scherf et al.
# Submitted via: Collectorz.com_Music_Collector 6.11
#
DISCID=770af209
DTITLE=Katon, Michael - Diablo Boogie
DYEAR=2006
DGENRE=Blues - Blues-Rock
TTITLE0=Diablo Boogie
TTITLE1=Fried Jalapenos
TTITLE2=The Man From Hell
TTITLE3=Big Twin
TTITLE4=Love Hoo Doo
TTITLE5=The Devil's Daughter
TTITLE6='Till The Hounds Of Hell Come Home
TTITLE7=Boogie Man
TTITLE8=Need It Awful Bad
EXTD=
EXTT0=
EXTT1=
EXTT2=
EXTT3=
EXTT4=
EXTT5=
EXTT6=
EXTT7=
EXTT8=
PLAYORDER=
